<?xml version="1.0" encoding="UTF-8" standalone="no"?>
<!DOCTYPE svg PUBLIC "-//W3C//DTD SVG 1.1//EN"
 "http://www.w3.org/Graphics/SVG/1.1/DTD/svg11.dtd">
<!-- Generated by graphviz version 2.47.3 (20210619.1520)
 -->
<!-- Title: dependencies Pages: 1 -->
<svg width="1304pt" height="247pt"
 viewBox="0.00 0.00 1304.00 246.80" xmlns="http://www.w3.org/2000/svg" xmlns:xlink="http://www.w3.org/1999/xlink">
<g id="graph0" class="graph" transform="scale(1 1) rotate(0) translate(4 242.8)">
<title>dependencies</title>
<polygon fill="white" stroke="transparent" points="-4,4 -4,-242.8 1300,-242.8 1300,4 -4,4"/>
<text text-anchor="middle" x="648" y="-8.2" font-family="sans-serif" font-size="14.00">dependencies</text>
<g id="clust1" class="cluster">
<title>cluster_AppModule</title>
<polygon fill="none" stroke="black" stroke-dasharray="1,5" points="8,-32.8 8,-230.8 1288,-230.8 1288,-32.8 8,-32.8"/>
</g>
<g id="clust2" class="cluster">
<title>cluster_AppModule_declarations</title>
<polygon fill="none" stroke="black" points="168,-40.8 168,-92.8 1280,-92.8 1280,-40.8 168,-40.8"/>
</g>
<g id="clust11" class="cluster">
<title>cluster_AppModule_imports</title>
<polygon fill="none" stroke="black" points="16,-40.8 16,-92.8 160,-92.8 160,-40.8 16,-40.8"/>
</g>
<g id="clust13" class="cluster">
<title>cluster_AppModule_bootstrap</title>
<polygon fill="none" stroke="black" points="615,-170.8 615,-222.8 739,-222.8 739,-170.8 615,-170.8"/>
</g>
<!-- AppComponent -->
<g id="node1" class="node">
<title>AppComponent</title>
<polygon fill="#ffffb3" stroke="black" points="1271.94,-84.8 1166.06,-84.8 1166.06,-48.8 1271.94,-48.8 1271.94,-84.8"/>
<text text-anchor="middle" x="1219" y="-62.6" font-family="Times,serif" font-size="14.00">AppComponent</text>
</g>
<!-- AppModule -->
<g id="node9" class="node">
<title>AppModule</title>
<polygon fill="#8dd3c7" stroke="black" points="718.66,-149.8 715.66,-153.8 694.66,-153.8 691.66,-149.8 635.34,-149.8 635.34,-113.8 718.66,-113.8 718.66,-149.8"/>
<text text-anchor="middle" x="677" y="-127.6" font-family="Times,serif" font-size="14.00">AppModule</text>
</g>
<!-- AppComponent&#45;&gt;AppModule -->
<g id="edge1" class="edge">
<title>AppComponent&#45;&gt;AppModule</title>
<path fill="none" stroke="black" d="M1219,-84.81C1219,-107.29 1219,-142.8 1219,-142.8 1219,-142.8 729.08,-142.8 729.08,-142.8"/>
<polygon fill="black" stroke="black" points="729.08,-139.3 719.08,-142.8 729.08,-146.3 729.08,-139.3"/>
</g>
<!-- CardComponent -->
<g id="node2" class="node">
<title>CardComponent</title>
<polygon fill="#ffffb3" stroke="black" points="1148.05,-84.8 1039.95,-84.8 1039.95,-48.8 1148.05,-48.8 1148.05,-84.8"/>
<text text-anchor="middle" x="1094" y="-62.6" font-family="Times,serif" font-size="14.00">CardComponent</text>
</g>
<!-- CardComponent&#45;&gt;AppModule -->
<g id="edge2" class="edge">
<title>CardComponent&#45;&gt;AppModule</title>
<path fill="none" stroke="black" d="M1094,-84.93C1094,-105.37 1094,-135.8 1094,-135.8 1094,-135.8 728.89,-135.8 728.89,-135.8"/>
<polygon fill="black" stroke="black" points="728.89,-132.3 718.89,-135.8 728.89,-139.3 728.89,-132.3"/>
</g>
<!-- CategoriesComponent -->
<g id="node3" class="node">
<title>CategoriesComponent</title>
<polygon fill="#ffffb3" stroke="black" points="1021.7,-84.8 880.3,-84.8 880.3,-48.8 1021.7,-48.8 1021.7,-84.8"/>
<text text-anchor="middle" x="951" y="-62.6" font-family="Times,serif" font-size="14.00">CategoriesComponent</text>
</g>
<!-- CategoriesComponent&#45;&gt;AppModule -->
<g id="edge3" class="edge">
<title>CategoriesComponent&#45;&gt;AppModule</title>
<path fill="none" stroke="black" d="M951,-85.07C951,-103.36 951,-128.8 951,-128.8 951,-128.8 728.91,-128.8 728.91,-128.8"/>
<polygon fill="black" stroke="black" points="728.91,-125.3 718.91,-128.8 728.91,-132.3 728.91,-125.3"/>
</g>
<!-- FeedComponent -->
<g id="node4" class="node">
<title>FeedComponent</title>
<polygon fill="#ffffb3" stroke="black" points="862.05,-84.8 753.95,-84.8 753.95,-48.8 862.05,-48.8 862.05,-84.8"/>
<text text-anchor="middle" x="808" y="-62.6" font-family="Times,serif" font-size="14.00">FeedComponent</text>
</g>
<!-- FeedComponent&#45;&gt;AppModule -->
<g id="edge4" class="edge">
<title>FeedComponent&#45;&gt;AppModule</title>
<path fill="none" stroke="black" d="M808,-84.81C808,-100.85 808,-121.8 808,-121.8 808,-121.8 728.81,-121.8 728.81,-121.8"/>
<polygon fill="black" stroke="black" points="728.81,-118.3 718.81,-121.8 728.81,-125.3 728.81,-118.3"/>
</g>
<!-- FooterComponent -->
<g id="node5" class="node">
<title>FooterComponent</title>
<polygon fill="#ffffb3" stroke="black" points="735.88,-84.8 618.12,-84.8 618.12,-48.8 735.88,-48.8 735.88,-84.8"/>
<text text-anchor="middle" x="677" y="-62.6" font-family="Times,serif" font-size="14.00">FooterComponent</text>
</g>
<!-- FooterComponent&#45;&gt;AppModule -->
<g id="edge5" class="edge">
<title>FooterComponent&#45;&gt;AppModule</title>
<path fill="none" stroke="black" d="M677,-84.91C677,-84.91 677,-103.79 677,-103.79"/>
<polygon fill="black" stroke="black" points="673.5,-103.79 677,-113.79 680.5,-103.79 673.5,-103.79"/>
</g>
<!-- HeaderComponent -->
<g id="node6" class="node">
<title>HeaderComponent</title>
<polygon fill="#ffffb3" stroke="black" points="599.74,-84.8 478.26,-84.8 478.26,-48.8 599.74,-48.8 599.74,-84.8"/>
<text text-anchor="middle" x="539" y="-62.6" font-family="Times,serif" font-size="14.00">HeaderComponent</text>
</g>
<!-- HeaderComponent&#45;&gt;AppModule -->
<g id="edge6" class="edge">
<title>HeaderComponent&#45;&gt;AppModule</title>
<path fill="none" stroke="black" d="M539,-84.81C539,-100.85 539,-121.8 539,-121.8 539,-121.8 625.22,-121.8 625.22,-121.8"/>
<polygon fill="black" stroke="black" points="625.22,-125.3 635.22,-121.8 625.22,-118.3 625.22,-125.3"/>
</g>
<!-- LanguagesComponent -->
<g id="node7" class="node">
<title>LanguagesComponent</title>
<polygon fill="#ffffb3" stroke="black" points="459.97,-84.8 318.03,-84.8 318.03,-48.8 459.97,-48.8 459.97,-84.8"/>
<text text-anchor="middle" x="389" y="-62.6" font-family="Times,serif" font-size="14.00">LanguagesComponent</text>
</g>
<!-- LanguagesComponent&#45;&gt;AppModule -->
<g id="edge7" class="edge">
<title>LanguagesComponent&#45;&gt;AppModule</title>
<path fill="none" stroke="black" d="M389,-85.07C389,-103.36 389,-128.8 389,-128.8 389,-128.8 625.12,-128.8 625.12,-128.8"/>
<polygon fill="black" stroke="black" points="625.12,-132.3 635.12,-128.8 625.12,-125.3 625.12,-132.3"/>
</g>
<!-- SpinnerComponent -->
<g id="node8" class="node">
<title>SpinnerComponent</title>
<polygon fill="#ffffb3" stroke="black" points="300.38,-84.8 175.62,-84.8 175.62,-48.8 300.38,-48.8 300.38,-84.8"/>
<text text-anchor="middle" x="238" y="-62.6" font-family="Times,serif" font-size="14.00">SpinnerComponent</text>
</g>
<!-- SpinnerComponent&#45;&gt;AppModule -->
<g id="edge8" class="edge">
<title>SpinnerComponent&#45;&gt;AppModule</title>
<path fill="none" stroke="black" d="M238,-84.93C238,-105.37 238,-135.8 238,-135.8 238,-135.8 625.3,-135.8 625.3,-135.8"/>
<polygon fill="black" stroke="black" points="625.3,-139.3 635.3,-135.8 625.3,-132.3 625.3,-139.3"/>
</g>
<!-- AppComponent  -->
<g id="node11" class="node">
<title>AppComponent </title>
<polygon fill="#80b1d3" stroke="black" points="731.44,-214.8 622.56,-214.8 622.56,-178.8 731.44,-178.8 731.44,-214.8"/>
<text text-anchor="middle" x="677" y="-192.6" font-family="Times,serif" font-size="14.00">AppComponent </text>
</g>
<!-- AppModule&#45;&gt;AppComponent  -->
<g id="edge10" class="edge">
<title>AppModule&#45;&gt;AppComponent </title>
<path fill="none" stroke="black" stroke-dasharray="1,5" d="M677,-149.91C677,-149.91 677,-168.79 677,-168.79"/>
<polygon fill="black" stroke="black" points="673.5,-168.79 677,-178.79 680.5,-168.79 673.5,-168.79"/>
</g>
<!-- AppRoutingModule -->
<g id="node10" class="node">
<title>AppRoutingModule</title>
<polygon fill="#8dd3c7" stroke="black" points="152.27,-84.8 149.27,-88.8 128.27,-88.8 125.27,-84.8 23.73,-84.8 23.73,-48.8 152.27,-48.8 152.27,-84.8"/>
<text text-anchor="middle" x="88" y="-62.6" font-family="Times,serif" font-size="14.00">AppRoutingModule</text>
</g>
<!-- AppRoutingModule&#45;&gt;AppModule -->
<g id="edge9" class="edge">
<title>AppRoutingModule&#45;&gt;AppModule</title>
<path fill="none" stroke="black" d="M88,-84.81C88,-107.29 88,-142.8 88,-142.8 88,-142.8 625.11,-142.8 625.11,-142.8"/>
<polygon fill="black" stroke="black" points="625.11,-146.3 635.11,-142.8 625.11,-139.3 625.11,-146.3"/>
</g>
</g>
</svg>
