<?xml version="1.0" encoding="UTF-8" standalone="no"?>
<!DOCTYPE svg PUBLIC "-//W3C//DTD SVG 1.1//EN"
 "http://www.w3.org/Graphics/SVG/1.1/DTD/svg11.dtd">
<!-- Generated by graphviz version 2.47.3 (20210619.1520)
 -->
<!-- Title: dependencies Pages: 1 -->
<svg width="869pt" height="247pt"
 viewBox="0.00 0.00 869.00 246.80" xmlns="http://www.w3.org/2000/svg" xmlns:xlink="http://www.w3.org/1999/xlink">
<g id="graph0" class="graph" transform="scale(1 1) rotate(0) translate(4 242.8)">
<title>dependencies</title>
<polygon fill="white" stroke="transparent" points="-4,4 -4,-242.8 865,-242.8 865,4 -4,4"/>
<text text-anchor="middle" x="430.5" y="-8.2" font-family="sans-serif" font-size="14.00">dependencies</text>
<g id="clust1" class="cluster">
<title>cluster_AppModule</title>
<polygon fill="none" stroke="black" stroke-dasharray="1,5" points="8,-32.8 8,-230.8 853,-230.8 853,-32.8 8,-32.8"/>
</g>
<g id="clust2" class="cluster">
<title>cluster_AppModule_declarations</title>
<polygon fill="none" stroke="black" points="168,-40.8 168,-92.8 845,-92.8 845,-40.8 168,-40.8"/>
</g>
<g id="clust8" class="cluster">
<title>cluster_AppModule_imports</title>
<polygon fill="none" stroke="black" points="16,-40.8 16,-92.8 160,-92.8 160,-40.8 16,-40.8"/>
</g>
<g id="clust10" class="cluster">
<title>cluster_AppModule_bootstrap</title>
<polygon fill="none" stroke="black" points="382,-170.8 382,-222.8 506,-222.8 506,-170.8 382,-170.8"/>
</g>
<!-- AppComponent -->
<g id="node1" class="node">
<title>AppComponent</title>
<polygon fill="#ffffb3" stroke="black" points="836.94,-84.8 731.06,-84.8 731.06,-48.8 836.94,-48.8 836.94,-84.8"/>
<text text-anchor="middle" x="784" y="-62.6" font-family="Times,serif" font-size="14.00">AppComponent</text>
</g>
<!-- AppModule -->
<g id="node6" class="node">
<title>AppModule</title>
<polygon fill="#8dd3c7" stroke="black" points="485.66,-149.8 482.66,-153.8 461.66,-153.8 458.66,-149.8 402.34,-149.8 402.34,-113.8 485.66,-113.8 485.66,-149.8"/>
<text text-anchor="middle" x="444" y="-127.6" font-family="Times,serif" font-size="14.00">AppModule</text>
</g>
<!-- AppComponent&#45;&gt;AppModule -->
<g id="edge1" class="edge">
<title>AppComponent&#45;&gt;AppModule</title>
<path fill="none" stroke="black" d="M784,-85.08C784,-106.12 784,-137.8 784,-137.8 784,-137.8 495.69,-137.8 495.69,-137.8"/>
<polygon fill="black" stroke="black" points="495.69,-134.3 485.69,-137.8 495.69,-141.3 495.69,-134.3"/>
</g>
<!-- CardComponent -->
<g id="node2" class="node">
<title>CardComponent</title>
<polygon fill="#ffffb3" stroke="black" points="713.05,-84.8 604.95,-84.8 604.95,-48.8 713.05,-48.8 713.05,-84.8"/>
<text text-anchor="middle" x="659" y="-62.6" font-family="Times,serif" font-size="14.00">CardComponent</text>
</g>
<!-- CardComponent&#45;&gt;AppModule -->
<g id="edge2" class="edge">
<title>CardComponent&#45;&gt;AppModule</title>
<path fill="none" stroke="black" d="M659,-84.82C659,-102.17 659,-125.8 659,-125.8 659,-125.8 495.71,-125.8 495.71,-125.8"/>
<polygon fill="black" stroke="black" points="495.71,-122.3 485.71,-125.8 495.71,-129.3 495.71,-122.3"/>
</g>
<!-- CategoriesComponent -->
<g id="node3" class="node">
<title>CategoriesComponent</title>
<polygon fill="#ffffb3" stroke="black" points="586.7,-84.8 445.3,-84.8 445.3,-48.8 586.7,-48.8 586.7,-84.8"/>
<text text-anchor="middle" x="516" y="-62.6" font-family="Times,serif" font-size="14.00">CategoriesComponent</text>
</g>
<!-- CategoriesComponent&#45;&gt;AppModule -->
<g id="edge3" class="edge">
<title>CategoriesComponent&#45;&gt;AppModule</title>
<path fill="none" stroke="black" d="M465.61,-84.91C465.61,-84.91 465.61,-103.79 465.61,-103.79"/>
<polygon fill="black" stroke="black" points="462.11,-103.79 465.61,-113.79 469.11,-103.79 462.11,-103.79"/>
</g>
<!-- FeedComponent -->
<g id="node4" class="node">
<title>FeedComponent</title>
<polygon fill="#ffffb3" stroke="black" points="427.05,-84.8 318.95,-84.8 318.95,-48.8 427.05,-48.8 427.05,-84.8"/>
<text text-anchor="middle" x="373" y="-62.6" font-family="Times,serif" font-size="14.00">FeedComponent</text>
</g>
<!-- FeedComponent&#45;&gt;AppModule -->
<g id="edge4" class="edge">
<title>FeedComponent&#45;&gt;AppModule</title>
<path fill="none" stroke="black" d="M414.72,-84.91C414.72,-84.91 414.72,-103.79 414.72,-103.79"/>
<polygon fill="black" stroke="black" points="411.22,-103.79 414.72,-113.79 418.22,-103.79 411.22,-103.79"/>
</g>
<!-- SpinnerComponent -->
<g id="node5" class="node">
<title>SpinnerComponent</title>
<polygon fill="#ffffb3" stroke="black" points="300.38,-84.8 175.62,-84.8 175.62,-48.8 300.38,-48.8 300.38,-84.8"/>
<text text-anchor="middle" x="238" y="-62.6" font-family="Times,serif" font-size="14.00">SpinnerComponent</text>
</g>
<!-- SpinnerComponent&#45;&gt;AppModule -->
<g id="edge5" class="edge">
<title>SpinnerComponent&#45;&gt;AppModule</title>
<path fill="none" stroke="black" d="M238,-84.82C238,-102.17 238,-125.8 238,-125.8 238,-125.8 392.31,-125.8 392.31,-125.8"/>
<polygon fill="black" stroke="black" points="392.31,-129.3 402.31,-125.8 392.31,-122.3 392.31,-129.3"/>
</g>
<!-- AppComponent  -->
<g id="node8" class="node">
<title>AppComponent </title>
<polygon fill="#80b1d3" stroke="black" points="498.44,-214.8 389.56,-214.8 389.56,-178.8 498.44,-178.8 498.44,-214.8"/>
<text text-anchor="middle" x="444" y="-192.6" font-family="Times,serif" font-size="14.00">AppComponent </text>
</g>
<!-- AppModule&#45;&gt;AppComponent  -->
<g id="edge7" class="edge">
<title>AppModule&#45;&gt;AppComponent </title>
<path fill="none" stroke="black" stroke-dasharray="1,5" d="M444,-149.91C444,-149.91 444,-168.79 444,-168.79"/>
<polygon fill="black" stroke="black" points="440.5,-168.79 444,-178.79 447.5,-168.79 440.5,-168.79"/>
</g>
<!-- AppRoutingModule -->
<g id="node7" class="node">
<title>AppRoutingModule</title>
<polygon fill="#8dd3c7" stroke="black" points="152.27,-84.8 149.27,-88.8 128.27,-88.8 125.27,-84.8 23.73,-84.8 23.73,-48.8 152.27,-48.8 152.27,-84.8"/>
<text text-anchor="middle" x="88" y="-62.6" font-family="Times,serif" font-size="14.00">AppRoutingModule</text>
</g>
<!-- AppRoutingModule&#45;&gt;AppModule -->
<g id="edge6" class="edge">
<title>AppRoutingModule&#45;&gt;AppModule</title>
<path fill="none" stroke="black" d="M88,-85.08C88,-106.12 88,-137.8 88,-137.8 88,-137.8 392.12,-137.8 392.12,-137.8"/>
<polygon fill="black" stroke="black" points="392.12,-141.3 402.12,-137.8 392.12,-134.3 392.12,-141.3"/>
</g>
</g>
</svg>
