<?xml version="1.0" encoding="UTF-8" standalone="no"?>
<!DOCTYPE svg PUBLIC "-//W3C//DTD SVG 1.1//EN"
 "http://www.w3.org/Graphics/SVG/1.1/DTD/svg11.dtd">
<!-- Generated by graphviz version 2.47.3 (20210619.1520)
 -->
<!-- Title: dependencies Pages: 1 -->
<svg width="1304pt" height="247pt"
 viewBox="0.00 0.00 1304.00 246.80" xmlns="http://www.w3.org/2000/svg" xmlns:xlink="http://www.w3.org/1999/xlink">
<g id="graph0" class="graph" transform="scale(1 1) rotate(0) translate(4 242.8)">
<title>dependencies</title>
<polygon fill="white" stroke="transparent" points="-4,4 -4,-242.8 1300,-242.8 1300,4 -4,4"/>
<text text-anchor="middle" x="648" y="-8.2" font-family="sans-serif" font-size="14.00">dependencies</text>
<g id="clust1" class="cluster">
<title>cluster_AppModule</title>
<polygon fill="none" stroke="black" stroke-dasharray="1,5" points="8,-32.8 8,-230.8 1288,-230.8 1288,-32.8 8,-32.8"/>
</g>
<g id="clust11" class="cluster">
<title>cluster_AppModule_imports</title>
<polygon fill="none" stroke="black" points="1136,-40.8 1136,-92.8 1280,-92.8 1280,-40.8 1136,-40.8"/>
</g>
<g id="clust13" class="cluster">
<title>cluster_AppModule_bootstrap</title>
<polygon fill="none" stroke="black" points="594,-170.8 594,-222.8 718,-222.8 718,-170.8 594,-170.8"/>
</g>
<g id="clust2" class="cluster">
<title>cluster_AppModule_declarations</title>
<polygon fill="none" stroke="black" points="16,-40.8 16,-92.8 1128,-92.8 1128,-40.8 16,-40.8"/>
</g>
<!-- AppComponent -->
<g id="node1" class="node">
<title>AppComponent</title>
<polygon fill="#ffffb3" stroke="black" points="1119.94,-84.8 1014.06,-84.8 1014.06,-48.8 1119.94,-48.8 1119.94,-84.8"/>
<text text-anchor="middle" x="1067" y="-62.6" font-family="Times,serif" font-size="14.00">AppComponent</text>
</g>
<!-- AppModule -->
<g id="node9" class="node">
<title>AppModule</title>
<polygon fill="#8dd3c7" stroke="black" points="697.66,-149.8 694.66,-153.8 673.66,-153.8 670.66,-149.8 614.34,-149.8 614.34,-113.8 697.66,-113.8 697.66,-149.8"/>
<text text-anchor="middle" x="656" y="-127.6" font-family="Times,serif" font-size="14.00">AppModule</text>
</g>
<!-- AppComponent&#45;&gt;AppModule -->
<g id="edge1" class="edge">
<title>AppComponent&#45;&gt;AppModule</title>
<path fill="none" stroke="black" d="M1067,-84.93C1067,-105.37 1067,-135.8 1067,-135.8 1067,-135.8 707.67,-135.8 707.67,-135.8"/>
<polygon fill="black" stroke="black" points="707.67,-132.3 697.67,-135.8 707.67,-139.3 707.67,-132.3"/>
</g>
<!-- CardComponent -->
<g id="node2" class="node">
<title>CardComponent</title>
<polygon fill="#ffffb3" stroke="black" points="996.05,-84.8 887.95,-84.8 887.95,-48.8 996.05,-48.8 996.05,-84.8"/>
<text text-anchor="middle" x="942" y="-62.6" font-family="Times,serif" font-size="14.00">CardComponent</text>
</g>
<!-- CardComponent&#45;&gt;AppModule -->
<g id="edge2" class="edge">
<title>CardComponent&#45;&gt;AppModule</title>
<path fill="none" stroke="black" d="M942,-85.07C942,-103.36 942,-128.8 942,-128.8 942,-128.8 707.89,-128.8 707.89,-128.8"/>
<polygon fill="black" stroke="black" points="707.89,-125.3 697.89,-128.8 707.89,-132.3 707.89,-125.3"/>
</g>
<!-- CategoriesComponent -->
<g id="node3" class="node">
<title>CategoriesComponent</title>
<polygon fill="#ffffb3" stroke="black" points="869.7,-84.8 728.3,-84.8 728.3,-48.8 869.7,-48.8 869.7,-84.8"/>
<text text-anchor="middle" x="799" y="-62.6" font-family="Times,serif" font-size="14.00">CategoriesComponent</text>
</g>
<!-- CategoriesComponent&#45;&gt;AppModule -->
<g id="edge3" class="edge">
<title>CategoriesComponent&#45;&gt;AppModule</title>
<path fill="none" stroke="black" d="M799,-84.81C799,-100.85 799,-121.8 799,-121.8 799,-121.8 707.75,-121.8 707.75,-121.8"/>
<polygon fill="black" stroke="black" points="707.75,-118.3 697.75,-121.8 707.75,-125.3 707.75,-118.3"/>
</g>
<!-- FeedComponent -->
<g id="node4" class="node">
<title>FeedComponent</title>
<polygon fill="#ffffb3" stroke="black" points="710.05,-84.8 601.95,-84.8 601.95,-48.8 710.05,-48.8 710.05,-84.8"/>
<text text-anchor="middle" x="656" y="-62.6" font-family="Times,serif" font-size="14.00">FeedComponent</text>
</g>
<!-- FeedComponent&#45;&gt;AppModule -->
<g id="edge4" class="edge">
<title>FeedComponent&#45;&gt;AppModule</title>
<path fill="none" stroke="black" d="M656,-84.91C656,-84.91 656,-103.79 656,-103.79"/>
<polygon fill="black" stroke="black" points="652.5,-103.79 656,-113.79 659.5,-103.79 652.5,-103.79"/>
</g>
<!-- FooterComponent -->
<g id="node5" class="node">
<title>FooterComponent</title>
<polygon fill="#ffffb3" stroke="black" points="583.88,-84.8 466.12,-84.8 466.12,-48.8 583.88,-48.8 583.88,-84.8"/>
<text text-anchor="middle" x="525" y="-62.6" font-family="Times,serif" font-size="14.00">FooterComponent</text>
</g>
<!-- FooterComponent&#45;&gt;AppModule -->
<g id="edge5" class="edge">
<title>FooterComponent&#45;&gt;AppModule</title>
<path fill="none" stroke="black" d="M525,-84.81C525,-100.85 525,-121.8 525,-121.8 525,-121.8 604.19,-121.8 604.19,-121.8"/>
<polygon fill="black" stroke="black" points="604.19,-125.3 614.19,-121.8 604.19,-118.3 604.19,-125.3"/>
</g>
<!-- HeaderComponent -->
<g id="node6" class="node">
<title>HeaderComponent</title>
<polygon fill="#ffffb3" stroke="black" points="447.74,-84.8 326.26,-84.8 326.26,-48.8 447.74,-48.8 447.74,-84.8"/>
<text text-anchor="middle" x="387" y="-62.6" font-family="Times,serif" font-size="14.00">HeaderComponent</text>
</g>
<!-- HeaderComponent&#45;&gt;AppModule -->
<g id="edge6" class="edge">
<title>HeaderComponent&#45;&gt;AppModule</title>
<path fill="none" stroke="black" d="M387,-85.07C387,-103.36 387,-128.8 387,-128.8 387,-128.8 604.26,-128.8 604.26,-128.8"/>
<polygon fill="black" stroke="black" points="604.26,-132.3 614.26,-128.8 604.26,-125.3 604.26,-132.3"/>
</g>
<!-- LanguagesComponent -->
<g id="node7" class="node">
<title>LanguagesComponent</title>
<polygon fill="#ffffb3" stroke="black" points="307.97,-84.8 166.03,-84.8 166.03,-48.8 307.97,-48.8 307.97,-84.8"/>
<text text-anchor="middle" x="237" y="-62.6" font-family="Times,serif" font-size="14.00">LanguagesComponent</text>
</g>
<!-- LanguagesComponent&#45;&gt;AppModule -->
<g id="edge7" class="edge">
<title>LanguagesComponent&#45;&gt;AppModule</title>
<path fill="none" stroke="black" d="M237,-84.93C237,-105.37 237,-135.8 237,-135.8 237,-135.8 604.29,-135.8 604.29,-135.8"/>
<polygon fill="black" stroke="black" points="604.29,-139.3 614.29,-135.8 604.29,-132.3 604.29,-139.3"/>
</g>
<!-- SpinnerComponent -->
<g id="node8" class="node">
<title>SpinnerComponent</title>
<polygon fill="#ffffb3" stroke="black" points="148.38,-84.8 23.62,-84.8 23.62,-48.8 148.38,-48.8 148.38,-84.8"/>
<text text-anchor="middle" x="86" y="-62.6" font-family="Times,serif" font-size="14.00">SpinnerComponent</text>
</g>
<!-- SpinnerComponent&#45;&gt;AppModule -->
<g id="edge8" class="edge">
<title>SpinnerComponent&#45;&gt;AppModule</title>
<path fill="none" stroke="black" d="M86,-84.81C86,-107.29 86,-142.8 86,-142.8 86,-142.8 604.09,-142.8 604.09,-142.8"/>
<polygon fill="black" stroke="black" points="604.09,-146.3 614.09,-142.8 604.09,-139.3 604.09,-146.3"/>
</g>
<!-- AppComponent  -->
<g id="node11" class="node">
<title>AppComponent </title>
<polygon fill="#80b1d3" stroke="black" points="710.44,-214.8 601.56,-214.8 601.56,-178.8 710.44,-178.8 710.44,-214.8"/>
<text text-anchor="middle" x="656" y="-192.6" font-family="Times,serif" font-size="14.00">AppComponent </text>
</g>
<!-- AppModule&#45;&gt;AppComponent  -->
<g id="edge10" class="edge">
<title>AppModule&#45;&gt;AppComponent </title>
<path fill="none" stroke="black" stroke-dasharray="1,5" d="M656,-149.91C656,-149.91 656,-168.79 656,-168.79"/>
<polygon fill="black" stroke="black" points="652.5,-168.79 656,-178.79 659.5,-168.79 652.5,-168.79"/>
</g>
<!-- AppRoutingModule -->
<g id="node10" class="node">
<title>AppRoutingModule</title>
<polygon fill="#8dd3c7" stroke="black" points="1272.27,-84.8 1269.27,-88.8 1248.27,-88.8 1245.27,-84.8 1143.73,-84.8 1143.73,-48.8 1272.27,-48.8 1272.27,-84.8"/>
<text text-anchor="middle" x="1208" y="-62.6" font-family="Times,serif" font-size="14.00">AppRoutingModule</text>
</g>
<!-- AppRoutingModule&#45;&gt;AppModule -->
<g id="edge9" class="edge">
<title>AppRoutingModule&#45;&gt;AppModule</title>
<path fill="none" stroke="black" d="M1208,-84.81C1208,-107.29 1208,-142.8 1208,-142.8 1208,-142.8 707.94,-142.8 707.94,-142.8"/>
<polygon fill="black" stroke="black" points="707.94,-139.3 697.94,-142.8 707.94,-146.3 707.94,-139.3"/>
</g>
</g>
</svg>
