<?xml version="1.0" encoding="UTF-8" standalone="no"?>
<!DOCTYPE svg PUBLIC "-//W3C//DTD SVG 1.1//EN"
 "http://www.w3.org/Graphics/SVG/1.1/DTD/svg11.dtd">
<!-- Generated by graphviz version 2.47.3 (20210619.1520)
 -->
<!-- Title: dependencies Pages: 1 -->
<svg width="869pt" height="247pt"
 viewBox="0.00 0.00 869.00 246.80" xmlns="http://www.w3.org/2000/svg" xmlns:xlink="http://www.w3.org/1999/xlink">
<g id="graph0" class="graph" transform="scale(1 1) rotate(0) translate(4 242.8)">
<title>dependencies</title>
<polygon fill="white" stroke="transparent" points="-4,4 -4,-242.8 865,-242.8 865,4 -4,4"/>
<text text-anchor="middle" x="430.5" y="-8.2" font-family="sans-serif" font-size="14.00">dependencies</text>
<g id="clust1" class="cluster">
<title>cluster_AppModule</title>
<polygon fill="none" stroke="black" stroke-dasharray="1,5" points="8,-32.8 8,-230.8 853,-230.8 853,-32.8 8,-32.8"/>
</g>
<g id="clust10" class="cluster">
<title>cluster_AppModule_bootstrap</title>
<polygon fill="none" stroke="black" points="373,-170.8 373,-222.8 497,-222.8 497,-170.8 373,-170.8"/>
</g>
<g id="clust8" class="cluster">
<title>cluster_AppModule_imports</title>
<polygon fill="none" stroke="black" points="701,-40.8 701,-92.8 845,-92.8 845,-40.8 701,-40.8"/>
</g>
<g id="clust2" class="cluster">
<title>cluster_AppModule_declarations</title>
<polygon fill="none" stroke="black" points="16,-40.8 16,-92.8 693,-92.8 693,-40.8 16,-40.8"/>
</g>
<!-- AppComponent -->
<g id="node1" class="node">
<title>AppComponent</title>
<polygon fill="#ffffb3" stroke="black" points="684.94,-84.8 579.06,-84.8 579.06,-48.8 684.94,-48.8 684.94,-84.8"/>
<text text-anchor="middle" x="632" y="-62.6" font-family="Times,serif" font-size="14.00">AppComponent</text>
</g>
<!-- AppModule -->
<g id="node6" class="node">
<title>AppModule</title>
<polygon fill="#8dd3c7" stroke="black" points="476.66,-149.8 473.66,-153.8 452.66,-153.8 449.66,-149.8 393.34,-149.8 393.34,-113.8 476.66,-113.8 476.66,-149.8"/>
<text text-anchor="middle" x="435" y="-127.6" font-family="Times,serif" font-size="14.00">AppModule</text>
</g>
<!-- AppComponent&#45;&gt;AppModule -->
<g id="edge1" class="edge">
<title>AppComponent&#45;&gt;AppModule</title>
<path fill="none" stroke="black" d="M632,-84.82C632,-102.17 632,-125.8 632,-125.8 632,-125.8 486.78,-125.8 486.78,-125.8"/>
<polygon fill="black" stroke="black" points="486.78,-122.3 476.78,-125.8 486.78,-129.3 486.78,-122.3"/>
</g>
<!-- CardComponent -->
<g id="node2" class="node">
<title>CardComponent</title>
<polygon fill="#ffffb3" stroke="black" points="561.05,-84.8 452.95,-84.8 452.95,-48.8 561.05,-48.8 561.05,-84.8"/>
<text text-anchor="middle" x="507" y="-62.6" font-family="Times,serif" font-size="14.00">CardComponent</text>
</g>
<!-- CardComponent&#45;&gt;AppModule -->
<g id="edge2" class="edge">
<title>CardComponent&#45;&gt;AppModule</title>
<path fill="none" stroke="black" d="M464.78,-84.91C464.78,-84.91 464.78,-103.79 464.78,-103.79"/>
<polygon fill="black" stroke="black" points="461.28,-103.79 464.78,-113.79 468.28,-103.79 461.28,-103.79"/>
</g>
<!-- CategoriesComponent -->
<g id="node3" class="node">
<title>CategoriesComponent</title>
<polygon fill="#ffffb3" stroke="black" points="434.7,-84.8 293.3,-84.8 293.3,-48.8 434.7,-48.8 434.7,-84.8"/>
<text text-anchor="middle" x="364" y="-62.6" font-family="Times,serif" font-size="14.00">CategoriesComponent</text>
</g>
<!-- CategoriesComponent&#45;&gt;AppModule -->
<g id="edge3" class="edge">
<title>CategoriesComponent&#45;&gt;AppModule</title>
<path fill="none" stroke="black" d="M413.89,-84.91C413.89,-84.91 413.89,-103.79 413.89,-103.79"/>
<polygon fill="black" stroke="black" points="410.39,-103.79 413.89,-113.79 417.39,-103.79 410.39,-103.79"/>
</g>
<!-- FeedComponent -->
<g id="node4" class="node">
<title>FeedComponent</title>
<polygon fill="#ffffb3" stroke="black" points="275.05,-84.8 166.95,-84.8 166.95,-48.8 275.05,-48.8 275.05,-84.8"/>
<text text-anchor="middle" x="221" y="-62.6" font-family="Times,serif" font-size="14.00">FeedComponent</text>
</g>
<!-- FeedComponent&#45;&gt;AppModule -->
<g id="edge4" class="edge">
<title>FeedComponent&#45;&gt;AppModule</title>
<path fill="none" stroke="black" d="M221,-84.82C221,-102.17 221,-125.8 221,-125.8 221,-125.8 383.23,-125.8 383.23,-125.8"/>
<polygon fill="black" stroke="black" points="383.23,-129.3 393.23,-125.8 383.23,-122.3 383.23,-129.3"/>
</g>
<!-- SpinnerComponent -->
<g id="node5" class="node">
<title>SpinnerComponent</title>
<polygon fill="#ffffb3" stroke="black" points="148.38,-84.8 23.62,-84.8 23.62,-48.8 148.38,-48.8 148.38,-84.8"/>
<text text-anchor="middle" x="86" y="-62.6" font-family="Times,serif" font-size="14.00">SpinnerComponent</text>
</g>
<!-- SpinnerComponent&#45;&gt;AppModule -->
<g id="edge5" class="edge">
<title>SpinnerComponent&#45;&gt;AppModule</title>
<path fill="none" stroke="black" d="M86,-85.08C86,-106.12 86,-137.8 86,-137.8 86,-137.8 383.25,-137.8 383.25,-137.8"/>
<polygon fill="black" stroke="black" points="383.25,-141.3 393.25,-137.8 383.25,-134.3 383.25,-141.3"/>
</g>
<!-- AppComponent  -->
<g id="node8" class="node">
<title>AppComponent </title>
<polygon fill="#80b1d3" stroke="black" points="489.44,-214.8 380.56,-214.8 380.56,-178.8 489.44,-178.8 489.44,-214.8"/>
<text text-anchor="middle" x="435" y="-192.6" font-family="Times,serif" font-size="14.00">AppComponent </text>
</g>
<!-- AppModule&#45;&gt;AppComponent  -->
<g id="edge7" class="edge">
<title>AppModule&#45;&gt;AppComponent </title>
<path fill="none" stroke="black" stroke-dasharray="1,5" d="M435,-149.91C435,-149.91 435,-168.79 435,-168.79"/>
<polygon fill="black" stroke="black" points="431.5,-168.79 435,-178.79 438.5,-168.79 431.5,-168.79"/>
</g>
<!-- AppRoutingModule -->
<g id="node7" class="node">
<title>AppRoutingModule</title>
<polygon fill="#8dd3c7" stroke="black" points="837.27,-84.8 834.27,-88.8 813.27,-88.8 810.27,-84.8 708.73,-84.8 708.73,-48.8 837.27,-48.8 837.27,-84.8"/>
<text text-anchor="middle" x="773" y="-62.6" font-family="Times,serif" font-size="14.00">AppRoutingModule</text>
</g>
<!-- AppRoutingModule&#45;&gt;AppModule -->
<g id="edge6" class="edge">
<title>AppRoutingModule&#45;&gt;AppModule</title>
<path fill="none" stroke="black" d="M773,-85.08C773,-106.12 773,-137.8 773,-137.8 773,-137.8 486.78,-137.8 486.78,-137.8"/>
<polygon fill="black" stroke="black" points="486.78,-134.3 476.78,-137.8 486.78,-141.3 486.78,-134.3"/>
</g>
</g>
</svg>
